<svg xmlns="http://www.w3.org/2000/svg" width="2319" height="2049" viewBox="0 0 2319 2049" version="1.1">
	<path d="M 186.500 38.102 C 98.866 47.658, 49.761 110.457, 39.966 225.500 C 36.936 261.083, 39.454 317.440, 50.534 462 C 66.119 665.350, 84.566 842.699, 96.611 905 C 103.420 940.216, 122.156 989.110, 142.786 1025.500 C 150.740 1039.529, 167.586 1064.397, 177.774 1077.148 C 197.214 1101.478, 214.643 1119.102, 239.133 1139.199 C 306.739 1194.674, 397.481 1231.077, 501.500 1244.454 C 551.441 1250.877, 616.213 1251.669, 668.986 1246.503 C 676.969 1245.722, 686.425 1244.849, 690 1244.563 C 697.592 1243.957, 700.438 1243.208, 663.151 1251.633 C 566.319 1273.512, 480.496 1307.570, 419.500 1348.324 C 344.382 1398.513, 299.350 1459.700, 286.974 1528.391 C 277.669 1580.043, 286.422 1633.664, 313.438 1690.500 C 339.158 1744.611, 382.404 1799.998, 444.370 1858.189 C 482.642 1894.130, 513.252 1918.797, 549 1942.505 C 605.934 1980.264, 656.160 2000.864, 711.500 2009.152 C 725.556 2011.257, 767.647 2010.961, 781.500 2008.659 C 811.715 2003.639, 834.250 1996.183, 861.403 1982.225 C 890.057 1967.495, 916.657 1947.417, 945.099 1919.050 C 991.303 1872.969, 1028.902 1818.219, 1068.091 1739.955 C 1094.610 1686.994, 1115.590 1635.335, 1144.016 1553 C 1156.400 1517.130, 1157.141 1515.333, 1159.546 1515.333 C 1161.777 1515.333, 1163.221 1518.888, 1175.663 1555 C 1203.170 1634.839, 1224.085 1686.247, 1250.930 1740 C 1289.661 1817.554, 1327.886 1873.209, 1373.894 1919.031 C 1426.198 1971.125, 1476.002 1998.411, 1537.500 2008.666 C 1553.125 2011.271, 1594.547 2011.259, 1611 2008.644 C 1663.663 2000.275, 1712.911 1980.006, 1767.500 1944.232 C 1834.423 1900.376, 1912.329 1827.891, 1958.804 1766.240 C 2022.039 1682.355, 2046.580 1599.349, 2030.864 1522.500 C 2026.727 1502.268, 2017.374 1477.349, 2006.935 1458.746 C 1983.283 1416.597, 1946.485 1379.145, 1896.779 1346.630 C 1878.248 1334.509, 1865.599 1327.295, 1843.500 1316.244 C 1785.824 1287.402, 1724.374 1266.743, 1640.500 1247.997 C 1621.475 1243.745, 1621.852 1243.681, 1649.500 1246.486 C 1700.692 1251.678, 1767.268 1250.878, 1817.500 1244.466 C 1960.707 1226.186, 2075.794 1164.895, 2147.913 1068.500 C 2174.076 1033.530, 2194.907 993.727, 2209.667 950.500 C 2223.014 911.415, 2228.560 878.698, 2240.946 766 C 2256.580 623.743, 2276.389 377.226, 2280.319 276 C 2280.843 262.513, 2279.256 225.801, 2277.488 210.500 C 2265.276 104.827, 2215.437 46.329, 2130.576 38.064 C 2037.857 29.034, 1902.197 85.151, 1774.500 185.360 C 1729.220 220.894, 1687.226 258.910, 1633.897 312.647 C 1571.835 375.185, 1521.459 431.829, 1458.828 509.500 C 1344.772 650.946, 1227.585 827.245, 1167.892 947.195 L 1159.583 963.889 1146.976 939.195 C 1083.524 814.908, 972.872 649.340, 858.131 507 C 729.478 347.402, 601.339 221.345, 492 146.819 C 416.283 95.209, 337.888 58.807, 271.718 44.531 C 243.359 38.413, 208.065 35.750, 186.500 38.102" stroke="none" fill="#000000" fill-rule="evenodd"/>
</svg>